<?xml version='1.0' encoding='utf-8'?>
<mxfile host="app.diagrams.net"><diagram id="diagram_1" name="Terraform Infrastructure"><mxGraphModel><root><mxCell id="0" /><mxCell id="1" parent="0" /><mxCell id="vpc" value="VPC: 10.0.0.0/16" style="shape=rectangle;fillColor=#fff2cc;strokeColor=#000000;fontSize=12;" vertex="1" parent="1"><mxGeometry x="100" y="50" width="160" height="60" as_="geometry" /></mxCell><mxCell id="igw" value="Internet Gateway" style="shape=rectangle;fillColor=#dae8fc;strokeColor=#000000;fontSize=12;" vertex="1" parent="1"><mxGeometry x="100" y="150" width="160" height="60" as_="geometry" /></mxCell><mxCell id="nat_1a" value="NAT Gateway 1a&#10;54.224.136.231" style="shape=rectangle;fillColor=#dae8fc;strokeColor=#000000;fontSize=12;" vertex="1" parent="1"><mxGeometry x="300" y="150" width="160" height="60" as_="geometry" /></mxCell><mxCell id="alb" value="ALB&#10;rooman-academy-alb" style="shape=rectangle;fillColor=#d5e8d4;strokeColor=#000000;fontSize=12;" vertex="1" parent="1"><mxGeometry x="500" y="50" width="160" height="60" as_="geometry" /></mxCell><mxCell id="web_1a" value="Web Server 1a&#10;44.214.44.90" style="shape=rectangle;fillColor=#dae8fc;strokeColor=#000000;fontSize=12;" vertex="1" parent="1"><mxGeometry x="500" y="150" width="160" height="60" as_="geometry" /></mxCell><mxCell id="web_1b" value="Web Server 1b&#10;13.222.211.246" style="shape=rectangle;fillColor=#dae8fc;strokeColor=#000000;fontSize=12;" vertex="1" parent="1"><mxGeometry x="500" y="250" width="160" height="60" as_="geometry" /></mxCell><mxCell id="app_1a" value="App Server 1a&#10;10.0.3.208" style="shape=rectangle;fillColor=#dae8fc;strokeColor=#000000;fontSize=12;" vertex="1" parent="1"><mxGeometry x="700" y="150" width="160" height="60" as_="geometry" /></mxCell><mxCell id="app_1b" value="App Server 1b&#10;10.0.4.45" style="shape=rectangle;fillColor=#dae8fc;strokeColor=#000000;fontSize=12;" vertex="1" parent="1"><mxGeometry x="700" y="250" width="160" height="60" as_="geometry" /></mxCell><mxCell id="rds" value="RDS MySQL&#10;rooman-academy-mysql" style="shape=rectangle;fillColor=#f8cecc;strokeColor=#000000;fontSize=12;" vertex="1" parent="1"><mxGeometry x="900" y="200" width="160" height="60" as_="geometry" /></mxCell><mxCell id="s3" value="S3 Bucket&#10;rooman-backup-bucket" style="shape=rectangle;fillColor=#e1d5e7;strokeColor=#000000;fontSize=12;" vertex="1" parent="1"><mxGeometry x="900" y="50" width="160" height="60" as_="geometry" /></mxCell><mxCell id="100" edge="1" parent="1" source="vpc" target="igw" style="endArrow=block;strokeColor=#000000;" /><mxCell id="101" edge="1" parent="1" source="vpc" target="nat_1a" style="endArrow=block;strokeColor=#000000;" /><mxCell id="102" edge="1" parent="1" source="vpc" target="alb" style="endArrow=block;strokeColor=#000000;" /><mxCell id="103" edge="1" parent="1" source="alb" target="web_1a" style="endArrow=block;strokeColor=#000000;" /><mxCell id="104" edge="1" parent="1" source="alb" target="web_1b" style="endArrow=block;strokeColor=#000000;" /><mxCell id="105" edge="1" parent="1" source="web_1a" target="app_1a" style="endArrow=block;strokeColor=#000000;" /><mxCell id="106" edge="1" parent="1" source="web_1b" target="app_1b" style="endArrow=block;strokeColor=#000000;" /><mxCell id="107" edge="1" parent="1" source="app_1a" target="rds" style="endArrow=block;strokeColor=#000000;" /><mxCell id="108" edge="1" parent="1" source="app_1b" target="rds" style="endArrow=block;strokeColor=#000000;" /><mxCell id="109" edge="1" parent="1" source="vpc" target="s3" style="endArrow=block;strokeColor=#000000;" /></root></mxGraphModel></diagram></mxfile>